<?xml version="1.0" encoding="UTF-8"?>
<svg id="Layer_1" data-name="Layer 1" xmlns="http://www.w3.org/2000/svg" version="1.1" viewBox="0 0 360 215.11">
  <defs>
    <style>
      .cls-1 {
        fill: #277fff;
        opacity: .87;
        stroke-width: 0px;
      }
    </style>
  </defs>
  <path class="cls-1" d="M30.94,25.93c-.59,5.78-1.27,11.56-1.96,17.25-.39,2.74-.88,5.78-.88,8.53,0,1.47,0,5.78.98,6.86,1.08,1.27,2.65,2.25,4.31,2.25,3.33,0,5.88-.69,6.76-4.21,1.27-4.7,2.25-9.6,3.04-14.41.59-3.33,1.08-6.66,1.47-10,.39-2.84,1.18-14.41,3.23-16.27.69-.69,1.57-1.27,2.65-1.27,2.45,0,4.02,2.84,4.02,5,0,4.21-.78,8.43-1.18,12.64-.69,6.66-4.21,30.77-9.21,34.3-2.84,1.96-6.27,3.43-9.7,3.43-1.47,0-2.94-.2-4.41-.59-7.64-1.76-10.58-5-10.58-12.94,0-9.61,1.18-19.5,2.35-29.01.39-3.14.59-6.76,1.47-9.8.78-2.35,1.76-3.82,4.41-3.82,2.06,0,4.02.29,4.02,2.94,0,3.04-.49,6.08-.78,9.12Z"/>
  <path class="cls-1" d="M83.27,10.74c1.76,0,5.1.39,6.66,1.08,5.59,2.45,7.55,11.17,7.55,16.66,0,3.72-.69,7.45-2.84,10.58-3.04,4.41-7.94,9.21-13.43,10.29-3.14.59-6.57.2-9.7.59-.59,7.45-.98,14.8-.69,22.25-1.57,2.94-2.06,2.94-5.59,2.94-2.84,0-4.21-2.06-4.21-4.8,0-4.51.59-10,.78-14.7.49-13.72,1.27-27.44,1.27-41.16,0-3.82,2.84-4.02,5.49-5.59,2.16.1,4.7,1.18,5.59,3.43.29.59.2,1.37.29,2.06,2.16-2.74,5.59-3.63,8.82-3.63Z"/>
  <path class="cls-1" d="M118.26,55.72c0,.49.59,1.37,1.08,1.37,4.02,0,7.94-1.47,11.86-1.47,1.86,0,3.63.29,5.29,1.08.1.88,1.18,1.08,1.18,1.76,0,.1-.1.2-.1.29-.88,5.78-5.68,4.51-10.09,4.7-1.08.1-1.86.39-2.84.59-2.45.59-5.1.69-7.55,1.18-2.25.39-4.51,1.27-6.76,1.57-.39.1-.78.1-1.18.1-1.76,0-3.43-.29-4.12-2.16.1-.69,0-1.47,0-2.16,0-.78.1-1.08.39-1.67.98-2.55,2.06-4.9,3.43-7.25,4.7-7.84,11.27-15,12.94-24.21.1-.2.1-.39.1-.59,0-2.16-.88-4.12-2.84-5-1.96.2-4.12.29-5.59,1.76-2.06,1.86-3.53,6.08-6.66,6.08-1.96,0-3.53-1.37-3.53-3.33,0-2.45,2.35-4.7,3.14-6.96,3.23-3.53,7.84-5,12.45-5,1.37,0,3.04.1,4.41.39,2.25.69,5.78,3.82,6.57,5.98.59,1.37.78,3.92.78,5.29,0,11.37-12.35,24.4-12.35,27.64Z"/>
  <path class="cls-1" d="M152.95,74.34c-1.37.59-2.74,1.47-4.31,1.47-6.66,0-5.19-11.96-5.19-16.27v-7.64c0-9.6.1-19.41-.49-29.01-.1-2.06-.29-4.12-.29-6.08,0-2.06.2-5.39,1.86-6.76.78-.69,2.45-1.86,3.53-1.86s1.67.59,2.55,1.08c6.37,3.72,12.54,7.64,17.15,13.62,5.1,6.37,8.13,14.6,8.13,22.74,0,15.97-9.8,22.44-22.93,28.72Z"/>
  <path class="cls-1" d="M231.35,57.88c.1,1.37-.98,2.65-2.16,3.33-1.47,0-2.74.29-4.21.29-.59,0-1.37-.1-1.96-.29-1.86-.98-6.37-11.08-9.31-13.23-3.04-.29-5.98-.39-9.02-.39-2.06,0-4.02.1-6.08.1-1.76,2.94-3.63,5.78-5.29,8.72-.78,1.47-1.47,3.63-2.35,4.9-.78,1.18-2.74,2.84-4.21,2.84-2.06,0-4.02-2.74-4.21-4.71,1.67-4.02,4.02-7.64,5.78-11.66,2.84-6.86,6.57-13.33,9.21-20.29,1.37-3.33,3.04-7.64,7.35-7.64.49,0,1.08.2,1.57.29,2.35.2,4.02.1,5.19,2.55,2.25,4.9,5,9.8,7.64,14.6,1.86,3.43,3.72,7.06,5.78,10.39.69,1.08,1.57,2.16,2.25,3.23,1.37,2.16,2.65,4.41,4.02,6.67v.29Z"/>
  <path class="cls-1" d="M264.37,19.95c.88.59,1.76.88,2.84.88,2.25,0,4.51-.78,6.76-.78,1.47,0,3.14.29,4.02,1.67.2,1.08.39,2.25.39,3.33,0,1.76-.39,3.63-2.06,4.61-3.63.49-7.45,1.18-11.17,1.18-.1.59-.1,1.18-.1,1.76,0,.39.29,4.02.2,4.12.2,5.98.59,11.96.98,17.84.29,3.53.59,7.06.59,10.49,0,3.23-2.74,5.59-5.98,5.59-2.35,0-3.92-.49-4.8-2.94-.49-1.47-.29-17.64-.29-20.29-.1-4.8-.29-9.8-.88-14.6-.39-.1-.69-.1-1.08-.1-2.25,0-4.51.49-6.76.59-1.96.2-3.92.78-5.98.78-.98,0-2.35-.29-3.14-.88s-1.57-3.14-1.57-4.02c0-1.86.88-5.29,3.04-5.78,3.33-.78,6.76-.88,10.19-.88,1.37,0,2.84-.2,4.12-.78,1.18-2.65-.98-8.04,3.33-8.53,1.18-.1,2.55-.39,3.82-.39,3.33,0,3.23,2.35,3.23,4.8,0,.78.1,1.67.29,2.35Z"/>
  <path class="cls-1" d="M305.83,21.22c-3.82,1.57-8.23,1.27-12.15,2.25-.2.69-.1,1.57-.39,2.25l.1,1.67c0,2.16-.2,4.31-.2,6.47,0,1.76.1,3.43.39,5.1.29,0,.59.1.78.1,2.45,0,4.8-1.08,7.25-1.08s3.14,1.67,3.14,3.82c0,4.21-8.13,4.9-11.17,6.17.2,4.02.1,8.23.88,12.25,2.16-.29,4.51-.59,6.57-1.08,2.06-.49,4.02-1.37,6.17-1.37.59,0,1.18,0,1.76.2,1.37.98,1.96,1.67,1.96,3.53,0,.98-.98,1.96-1.57,2.55-1.96,2.16-6.37,2.35-9.12,2.74-3.04.49-6.08,1.67-9.21,1.67-.98,0-2.94-.2-3.82-.78-2.94-1.86-2.25-7.45-2.45-10.49-.49-8.62-.88-17.25-.88-25.87,0-2.45,0-9.6.59-11.66.2-.78,1.67-2.06,2.45-2.35,3.33-.88,12.94-1.86,16.47-1.86,2.06,0,3.82.2,3.82,2.74,0,1.18-.59,2.25-1.37,3.04Z"/>
  <path class="cls-1" d="M34.36,113.99c6.86-4.67,13.72-10.37,19.13-16.79,1.75-1.9,3.8-2.63,6.28-2.63,3.5,0,5.84,1.02,5.84,4.96,0,5.69-8.76,12.12-12.12,16.64.58,4.82,4.38,13.43,6.57,18.1,1.75,3.94,3.94,7.74,5.69,11.68,3.65,7.88,6.86,15.91,10.51,23.65,1.75,3.5,3.8,6.71,5.4,10.07.29.44.29,1.31.29,1.75,0,2.92-2.04,5.69-4.09,7.59-.88.29-1.9.44-2.92.44-1.9,0-3.8-.44-5.11-1.75-3.36-3.65-3.8-9.05-5.84-13.29-7.59-15.77-14.31-31.97-22.63-47.3-2.34.73-3.36,3.5-4.67,5.26.44,11.97,1.46,23.8,2.48,35.62.44,5.55.58,11.24,1.31,16.94.15,1.46.44,2.77.44,4.23,0,4.67-3.5,7.88-7.88,7.88-1.61,0-4.09-1.02-5.4-1.9-1.02-2.63-1.75-5.4-1.75-8.18,0-1.02.29-2.04.29-3.07,0-4.96-.29-9.93-.58-14.89-.73-14.02-1.75-27.89-2.92-41.76-.88-12.41-3.21-25.11-3.21-37.67,0-2.92,5.99-5.69,8.32-5.69,5.55,0,5.99,3.8,5.99,8.32s-.29,8.76-.29,13.14c0,2.92.44,5.69.88,8.61Z"/>
  <path class="cls-1" d="M138.9,154.58c-4.82,8.03-17.37,17.96-27.01,17.96-.73,0-1.46-.15-2.19-.29-14.6-2.77-21.9-13.72-21.9-28.18,0-6.42,1.31-15.77,5.4-20.88,5.84-7.3,17.23-14.45,26.86-14.45s14.6.88,20.44,9.05c3.07,4.23,3.8,10.07,3.8,15.18,0,7.01-1.61,15.48-5.4,21.61Z"/>
  <path class="cls-1" d="M190.14,133.99c3.5,8.03,8.76,14.89,12.26,22.92,2.63,6.13,9.64,13.72,9.64,20,0,1.17-.44,2.92-1.46,3.8-1.61,1.31-5.26,3.36-7.45,3.36-.88,0-1.75-.15-2.63-.44-3.5-4.09-5.4-8.18-7.88-12.85-.88-1.75-2.04-3.36-3.07-5.11-1.31-2.34-2.48-4.96-3.8-7.45l-8.32-15.18c-2.63,1.02-5.55.58-8.18.88-.15,2.34-.15,4.82-.15,7.15,0,4.38.15,8.61.44,12.85,0,1.75.44,3.5.44,5.26,0,4.09-4.53,9.05-8.76,9.05-3.94,0-7.01-3.8-7.01-7.74,0-2.63.58-5.11.58-7.74,0-4.23.29-8.32.29-12.56,0-11.39-.29-22.92-1.02-34.31,0-.88-.15-1.75-.15-2.63,0-3.65.44-7.3.73-10.95,4.38-4.53,11.1-5.11,16.94-5.11,13.14,0,25.7,1.46,25.7,17.66,0,6.13-2.34,14.89-7.15,19.13Z"/>
  <path class="cls-1" d="M253.36,109.76c-5.69,2.34-12.26,1.9-18.1,3.36-.29,1.02-.15,2.34-.58,3.36l.15,2.48c0,3.21-.29,6.42-.29,9.64,0,2.63.15,5.11.58,7.59.44,0,.88.15,1.17.15,3.65,0,7.15-1.61,10.8-1.61s4.67,2.48,4.67,5.69c0,6.28-12.12,7.3-16.64,9.2.29,5.99.15,12.26,1.31,18.25,3.21-.44,6.72-.88,9.78-1.61,3.07-.73,5.99-2.04,9.2-2.04.88,0,1.75,0,2.63.29,2.04,1.46,2.92,2.48,2.92,5.26,0,1.46-1.46,2.92-2.34,3.8-2.92,3.21-9.49,3.5-13.58,4.09-4.53.73-9.05,2.48-13.72,2.48-1.46,0-4.38-.29-5.69-1.17-4.38-2.77-3.36-11.1-3.65-15.62-.73-12.85-1.31-25.7-1.31-38.54,0-3.65,0-14.31.88-17.37.29-1.17,2.48-3.07,3.65-3.5,4.96-1.31,19.27-2.77,24.53-2.77,3.07,0,5.69.29,5.69,4.09,0,1.75-.88,3.36-2.04,4.53Z"/>
  <path class="cls-1" d="M340.52,164.36c.15,2.04-1.46,3.94-3.21,4.96-2.19,0-4.09.44-6.28.44-.88,0-2.04-.15-2.92-.44-2.77-1.46-9.49-16.5-13.87-19.71-4.53-.44-8.91-.58-13.43-.58-3.07,0-5.99.15-9.05.15-2.63,4.38-5.4,8.61-7.88,12.99-1.17,2.19-2.19,5.4-3.5,7.3-1.17,1.75-4.09,4.23-6.28,4.23-3.07,0-5.99-4.09-6.28-7.01,2.48-5.99,5.99-11.39,8.61-17.37,4.23-10.22,9.78-19.86,13.72-30.22,2.04-4.96,4.53-11.39,10.95-11.39.73,0,1.61.29,2.34.44,3.5.29,5.99.15,7.74,3.8,3.36,7.3,7.45,14.6,11.39,21.75,2.77,5.11,5.55,10.51,8.61,15.48,1.02,1.61,2.34,3.21,3.36,4.82,2.04,3.21,3.94,6.57,5.99,9.93v.44Z"/>
</svg>