<?xml version="1.0" encoding="UTF-8"?>
<svg id="Layer_1" data-name="Layer 1" xmlns="http://www.w3.org/2000/svg" version="1.1" viewBox="0 0 360 215.1">
  <defs>
    <style>
      .cls-1 {
        fill: #9fcafc;
        isolation: isolate;
        opacity: .9;
        stroke-width: 0px;
      }
    </style>
  </defs>
  <path class="cls-1" d="M30.9,25.9c-.6,5.8-1.3,11.6-2,17.2-.4,2.7-.9,5.8-.9,8.5s0,5.8,1,6.9c1.1,1.3,2.6,2.2,4.3,2.2,3.3,0,5.9-.7,6.8-4.2,1.3-4.7,2.2-9.6,3-14.4.6-3.3,1.1-6.7,1.5-10,.4-2.8,1.2-14.4,3.2-16.3.7-.7,1.6-1.3,2.7-1.3,2.5,0,4,2.8,4,5,0,4.2-.8,8.4-1.2,12.6-.7,6.7-4.2,30.8-9.2,34.3-2.8,2-6.3,3.4-9.7,3.4s-2.9-.2-4.4-.6c-7.6-1.8-10.6-5-10.6-12.9s1.2-19.5,2.4-29c.4-3.1.6-6.8,1.5-9.8.8-2.4,1.8-3.8,4.4-3.8s4,.3,4,2.9-.5,6.1-.8,9.1h0Z"/>
  <path class="cls-1" d="M83.3,10.7c1.8,0,5.1.4,6.7,1.1,5.6,2.4,7.6,11.2,7.6,16.7s-.7,7.5-2.8,10.6c-3,4.4-7.9,9.2-13.4,10.3-3.1.6-6.6.2-9.7.6-.6,7.5-1,14.8-.7,22.3-1.6,2.9-2.1,2.9-5.6,2.9s-4.2-2.1-4.2-4.8c0-4.5.6-10,.8-14.7.5-13.7,1.3-27.4,1.3-41.2s2.8-4,5.5-5.6c2.2.1,4.7,1.2,5.6,3.4.3.6.2,1.4.3,2.1,2.2-2.7,5.6-3.6,8.8-3.6h0Z"/>
  <path class="cls-1" d="M118.3,55.7c0,.5.6,1.4,1.1,1.4,4,0,7.9-1.5,11.9-1.5s3.6.3,5.3,1.1c.1.9,1.2,1.1,1.2,1.8s-.1.2-.1.3c-.9,5.8-5.7,4.5-10.1,4.7-1.1,0-1.9.4-2.8.6-2.4.6-5.1.7-7.6,1.2-2.2.4-4.5,1.3-6.8,1.6-.4,0-.8,0-1.2,0-1.8,0-3.4-.3-4.1-2.2,0-.7,0-1.5,0-2.2s0-1.1.4-1.7c1-2.5,2.1-4.9,3.4-7.2,4.7-7.8,11.3-15,12.9-24.2,0-.2,0-.4,0-.6,0-2.2-.9-4.1-2.8-5-2,.2-4.1.3-5.6,1.8-2.1,1.9-3.5,6.1-6.7,6.1s-3.5-1.4-3.5-3.3,2.3-4.7,3.1-7c3.2-3.5,7.8-5,12.4-5s3,.1,4.4.4c2.2.7,5.8,3.8,6.6,6,.6,1.4.8,3.9.8,5.3,0,11.4-12.3,24.4-12.3,27.6h0Z"/>
  <path class="cls-1" d="M152.9,74.3c-1.4.6-2.7,1.5-4.3,1.5-6.7,0-5.2-12-5.2-16.3v-7.6c0-9.6.1-19.4-.5-29-.1-2.1-.3-4.1-.3-6.1s.2-5.4,1.9-6.8c.8-.7,2.4-1.9,3.5-1.9s1.7.6,2.6,1.1c6.4,3.7,12.5,7.6,17.1,13.6,5.1,6.4,8.1,14.6,8.1,22.7,0,16-9.8,22.4-22.9,28.7h0Z"/>
  <path class="cls-1" d="M231.4,57.9c.1,1.4-1,2.7-2.2,3.3-1.5,0-2.7.3-4.2.3s-1.4,0-2-.3c-1.9-1-6.4-11.1-9.3-13.2-3-.3-6-.4-9-.4s-4,0-6.1,0c-1.8,2.9-3.6,5.8-5.3,8.7-.8,1.5-1.5,3.6-2.4,4.9-.8,1.2-2.7,2.8-4.2,2.8s-4-2.7-4.2-4.7c1.7-4,4-7.6,5.8-11.7,2.8-6.9,6.6-13.3,9.2-20.3,1.4-3.3,3-7.6,7.4-7.6s1.1.2,1.6.3c2.4.2,4,.1,5.2,2.5,2.2,4.9,5,9.8,7.6,14.6,1.9,3.4,3.7,7.1,5.8,10.4.7,1.1,1.6,2.2,2.2,3.2,1.4,2.2,2.6,4.4,4,6.7v.3h0Z"/>
  <path class="cls-1" d="M264.4,20c.9.6,1.8.9,2.8.9,2.2,0,4.5-.8,6.8-.8s3.1.3,4,1.7c.2,1.1.4,2.2.4,3.3,0,1.8-.4,3.6-2.1,4.6-3.6.5-7.5,1.2-11.2,1.2-.1.6-.1,1.2-.1,1.8s.3,4,.2,4.1c.2,6,.6,12,1,17.8.3,3.5.6,7.1.6,10.5s-2.7,5.6-6,5.6-3.9-.5-4.8-2.9c-.5-1.5-.3-17.6-.3-20.3-.1-4.8-.3-9.8-.9-14.6-.4,0-.7,0-1.1,0-2.2,0-4.5.5-6.8.6-2,.2-3.9.8-6,.8s-2.4-.3-3.1-.9-1.6-3.1-1.6-4c0-1.9.9-5.3,3-5.8,3.3-.8,6.8-.9,10.2-.9s2.8-.2,4.1-.8c1.2-2.6-1-8,3.3-8.5,1.2-.1,2.5-.4,3.8-.4,3.3,0,3.2,2.4,3.2,4.8s.1,1.7.3,2.4h0Z"/>
  <path class="cls-1" d="M305.8,21.2c-3.8,1.6-8.2,1.3-12.1,2.2-.2.7-.1,1.6-.4,2.2v1.7c.1,2.2-.1,4.3-.1,6.5s.1,3.4.4,5.1c.3,0,.6,0,.8,0,2.5,0,4.8-1.1,7.2-1.1s3.1,1.7,3.1,3.8c0,4.2-8.1,4.9-11.2,6.2.2,4,.1,8.2.9,12.2,2.2-.3,4.5-.6,6.6-1.1s4-1.4,6.2-1.4,1.2,0,1.8.2c1.4,1,2,1.7,2,3.5s-1,2-1.6,2.6c-2,2.2-6.4,2.3-9.1,2.7-3,.5-6.1,1.7-9.2,1.7s-2.9-.2-3.8-.8c-2.9-1.9-2.2-7.5-2.5-10.5-.5-8.6-.9-17.2-.9-25.9s0-9.6.6-11.7c.2-.8,1.7-2.1,2.5-2.4,3.3-.9,12.9-1.9,16.5-1.9s3.8.2,3.8,2.7-.6,2.2-1.4,3h0Z"/>
  <path class="cls-1" d="M34.4,114c6.9-4.7,13.7-10.4,19.1-16.8,1.8-1.9,3.8-2.6,6.3-2.6s5.8,1,5.8,5c0,5.7-8.8,12.1-12.1,16.6.6,4.8,4.4,13.4,6.6,18.1,1.8,3.9,3.9,7.7,5.7,11.7,3.7,7.9,6.9,15.9,10.5,23.6,1.8,3.5,3.8,6.7,5.4,10.1.3.4.3,1.3.3,1.8,0,2.9-2,5.7-4.1,7.6-.9.3-1.9.4-2.9.4-1.9,0-3.8-.4-5.1-1.8-3.4-3.6-3.8-9.1-5.8-13.3-7.6-15.8-14.3-32-22.6-47.3-2.3.7-3.4,3.5-4.7,5.3.4,12,1.5,23.8,2.5,35.6.4,5.6.6,11.2,1.3,16.9.2,1.5.4,2.8.4,4.2,0,4.7-3.5,7.9-7.9,7.9s-4.1-1-5.4-1.9c-1-2.6-1.8-5.4-1.8-8.2s.3-2,.3-3.1c0-5-.3-9.9-.6-14.9-.7-14-1.8-27.9-2.9-41.8-.9-12.4-3.2-25.1-3.2-37.7s6-5.7,8.3-5.7c5.5,0,6,3.8,6,8.3s-.3,8.8-.3,13.1.4,5.7.9,8.6h0Z"/>
  <path class="cls-1" d="M138.9,154.6c-4.8,8-17.4,18-27,18s-1.5-.1-2.2-.3c-14.6-2.8-21.9-13.7-21.9-28.2s1.3-15.8,5.4-20.9c5.8-7.3,17.2-14.4,26.9-14.4s14.6.9,20.4,9.1c3.1,4.2,3.8,10.1,3.8,15.2s-1.6,15.5-5.4,21.6h0Z"/>
  <path class="cls-1" d="M190.1,134c3.5,8,8.8,14.9,12.3,22.9,2.6,6.1,9.6,13.7,9.6,20s-.4,2.9-1.5,3.8c-1.6,1.3-5.3,3.4-7.4,3.4s-1.8-.1-2.6-.4c-3.5-4.1-5.4-8.2-7.9-12.9-.9-1.8-2-3.4-3.1-5.1-1.3-2.3-2.5-5-3.8-7.4l-8.3-15.2c-2.6,1-5.6.6-8.2.9-.1,2.3-.1,4.8-.1,7.1,0,4.4.1,8.6.4,12.9,0,1.8.4,3.5.4,5.3,0,4.1-4.5,9.1-8.8,9.1s-7-3.8-7-7.7.6-5.1.6-7.7c0-4.2.3-8.3.3-12.6,0-11.4-.3-22.9-1-34.3,0-.9-.1-1.8-.1-2.6,0-3.7.4-7.3.7-10.9,4.4-4.5,11.1-5.1,16.9-5.1,13.1,0,25.7,1.5,25.7,17.7s-2.3,14.9-7.1,19.1h0Z"/>
  <path class="cls-1" d="M253.4,109.8c-5.7,2.3-12.3,1.9-18.1,3.4-.3,1-.1,2.3-.6,3.4v2.5c.1,3.2-.1,6.4-.1,9.6s.1,5.1.6,7.6c.4,0,.9.1,1.2.1,3.6,0,7.1-1.6,10.8-1.6s4.7,2.5,4.7,5.7c0,6.3-12.1,7.3-16.6,9.2.3,6,.1,12.3,1.3,18.2,3.2-.4,6.7-.9,9.8-1.6,3.1-.7,6-2,9.2-2s1.7,0,2.6.3c2,1.5,2.9,2.5,2.9,5.3s-1.5,2.9-2.3,3.8c-2.9,3.2-9.5,3.5-13.6,4.1-4.5.7-9.1,2.5-13.7,2.5s-4.4-.3-5.7-1.2c-4.4-2.8-3.4-11.1-3.6-15.6-.7-12.9-1.3-25.7-1.3-38.5s0-14.3.9-17.4c.3-1.2,2.5-3.1,3.6-3.5,5-1.3,19.3-2.8,24.5-2.8s5.7.3,5.7,4.1-.9,3.4-2,4.5h0Z"/>
  <path class="cls-1" d="M340.5,164.4c.1,2-1.5,3.9-3.2,5-2.2,0-4.1.4-6.3.4s-2-.1-2.9-.4c-2.8-1.5-9.5-16.5-13.9-19.7-4.5-.4-8.9-.6-13.4-.6s-6,.1-9,.1c-2.6,4.4-5.4,8.6-7.9,13-1.2,2.2-2.2,5.4-3.5,7.3-1.2,1.8-4.1,4.2-6.3,4.2s-6-4.1-6.3-7c2.5-6,6-11.4,8.6-17.4,4.2-10.2,9.8-19.9,13.7-30.2,2-5,4.5-11.4,11-11.4s1.6.3,2.3.4c3.5.3,6,.2,7.7,3.8,3.4,7.3,7.5,14.6,11.4,21.8,2.8,5.1,5.5,10.5,8.6,15.5,1,1.6,2.3,3.2,3.4,4.8,2,3.2,3.9,6.6,6,9.9v.4h0Z"/>
</svg>